<svg width="101" height="36" viewBox="0 0 101 36" fill="none" xmlns="http://www.w3.org/2000/svg" class="mainImg_hhxN"
     alt="ChargePi">
    <g filter="url(#Logo_svg__filter0_d)">
        <path d="M20.865 13.043a.837.837 0 00-.244-.394.576.576 0 00-.378-.149H12.23l4.622-11.285a1.012 1.012 0 00-.023-.816.76.76 0 00-.242-.293A.561.561 0 0016.26 0a.591.591 0 00-.433.203L10.953 5.49 1.23 16.036a.886.886 0 00-.21.423c-.033.165-.026.339.022.498.047.16.132.297.243.394.11.097.243.149.378.149h8.013L5.054 28.785a1.012 1.012 0 00.023.816.76.76 0 00.242.293c.1.07.212.106.326.106.159 0 .312-.072.433-.203l4.875-5.287 9.723-10.546a.886.886 0 00.21-.423 1.037 1.037 0 00-.02-.498z"
              fill="#E92B2B"></path>
    </g>
    <path d="M37.898 16.94c-.158 1.353-.659 2.399-1.503 3.137-.837.733-1.954 1.099-3.348 1.099-1.512 0-2.725-.542-3.639-1.626-.908-1.084-1.362-2.534-1.362-4.35v-1.231c0-1.19.21-2.236.633-3.138.427-.902 1.031-1.594 1.81-2.074.78-.486 1.682-.73 2.707-.73 1.36 0 2.45.381 3.27 1.143.82.756 1.298 1.805 1.432 3.146h-1.696c-.146-1.02-.466-1.757-.958-2.214-.486-.457-1.169-.686-2.048-.686-1.078 0-1.924.398-2.54 1.195-.61.797-.914 1.931-.914 3.402v1.239c0 1.389.29 2.493.87 3.313.58.82 1.392 1.23 2.435 1.23.937 0 1.655-.21 2.153-.632.504-.428.838-1.169 1.002-2.224h1.696zm3.683-4.298c.72-.885 1.658-1.327 2.813-1.327 2.01 0 3.023 1.133 3.04 3.4V21H45.81v-6.293c-.006-.686-.164-1.192-.475-1.52-.305-.329-.782-.493-1.433-.493-.527 0-.99.141-1.388.422-.399.282-.71.65-.932 1.108V21h-1.626V7.5h1.626v5.142zM55.741 21c-.094-.188-.17-.521-.23-1.002-.755.785-1.658 1.178-2.706 1.178-.938 0-1.708-.264-2.312-.791-.598-.533-.896-1.207-.896-2.022 0-.99.375-1.758 1.125-2.302.755-.551 1.816-.827 3.181-.827h1.582v-.747c0-.568-.17-1.02-.51-1.353-.34-.34-.84-.51-1.502-.51-.58 0-1.067.146-1.46.44-.392.292-.588.647-.588 1.063H49.79c0-.475.167-.932.501-1.371.34-.446.797-.797 1.371-1.055a4.643 4.643 0 011.907-.386c1.096 0 1.954.275 2.575.826.622.544.944 1.297.967 2.258v4.377c0 .873.112 1.568.334 2.083V21H55.74zm-2.699-1.24c.51 0 .993-.131 1.45-.395.457-.263.788-.606.993-1.028v-1.951h-1.274c-1.992 0-2.988.583-2.988 1.749 0 .51.17.908.51 1.195.34.287.776.43 1.309.43zm11.215-6.81a4.874 4.874 0 00-.8-.062c-1.066 0-1.79.454-2.17 1.362V21H59.66v-9.51h1.582l.027 1.099c.533-.85 1.289-1.274 2.267-1.274.316 0 .557.04.72.123v1.511zm.94 3.216c0-1.482.343-2.66 1.029-3.533.685-.88 1.593-1.318 2.724-1.318 1.16 0 2.066.41 2.716 1.23l.08-1.055h1.485v9.281c0 1.231-.367 2.2-1.1 2.91-.726.709-1.704 1.063-2.935 1.063a4.89 4.89 0 01-2.012-.44c-.657-.292-1.158-.694-1.503-1.203l.843-.976c.698.861 1.55 1.292 2.558 1.292.791 0 1.406-.223 1.846-.668.445-.445.668-1.072.668-1.88v-.818c-.65.75-1.538 1.125-2.663 1.125-1.114 0-2.016-.448-2.707-1.345-.686-.896-1.029-2.118-1.029-3.665zm1.635.185c0 1.072.22 1.916.66 2.53.439.61 1.054.915 1.845.915 1.025 0 1.778-.466 2.259-1.398v-4.341c-.498-.909-1.245-1.363-2.242-1.363-.79 0-1.409.308-1.854.923-.445.615-.668 1.527-.668 2.734zm12.806 4.825c-1.29 0-2.338-.422-3.147-1.266-.808-.85-1.213-1.983-1.213-3.401v-.299c0-.943.179-1.784.536-2.523.364-.744.868-1.324 1.512-1.74a3.803 3.803 0 012.11-.632c1.236 0 2.197.407 2.882 1.221.686.815 1.029 1.98 1.029 3.498v.677h-6.443c.024.937.296 1.696.818 2.276.527.575 1.195.862 2.004.862.574 0 1.06-.118 1.459-.352a3.668 3.668 0 001.046-.932l.993.774c-.797 1.225-1.993 1.837-3.586 1.837zm-.203-8.526c-.656 0-1.207.24-1.652.721-.445.475-.72 1.143-.826 2.004h4.764v-.123c-.047-.826-.27-1.465-.668-1.916-.399-.457-.938-.686-1.617-.686z"
          fill="#000"></path>
    <path d="M87.179 15.99V21H85.49V8.203h4.72c1.4 0 2.496.358 3.287 1.072.797.715 1.195 1.662 1.195 2.84 0 1.241-.39 2.2-1.169 2.873-.773.668-1.883 1.002-3.33 1.002h-3.015zm0-1.38h3.032c.902 0 1.594-.21 2.074-.633.48-.427.72-1.042.72-1.845 0-.762-.24-1.371-.72-1.828-.48-.457-1.14-.695-1.977-.712h-3.13v5.018zM98.359 21h-1.627v-9.51h1.626V21zM96.6 8.968c0-.264.079-.487.237-.668.164-.182.404-.273.72-.273.317 0 .557.091.721.273a.96.96 0 01.246.668.929.929 0 01-.246.659c-.164.176-.404.264-.72.264-.317 0-.557-.088-.721-.264a.949.949 0 01-.237-.66z"
          fill="#E92B2B"></path>
    <path d="M23.907 3v25" stroke="#000"></path>
    <defs>
        <filter id="Logo_svg__filter0_d" x="-3" y="0" width="27.907" height="38" filterUnits="userSpaceOnUse"
                color-interpolation-filters="sRGB">
            <feFlood flood-opacity="0" result="BackgroundImageFix"></feFlood>
            <feColorMatrix in="SourceAlpha" values="0 0 0 0 0 0 0 0 0 0 0 0 0 0 0 0 0 0 127 0"
                           result="hardAlpha"></feColorMatrix>
            <feOffset dy="4"></feOffset>
            <feGaussianBlur stdDeviation="2"></feGaussianBlur>
            <feComposite in2="hardAlpha" operator="out"></feComposite>
            <feColorMatrix values="0 0 0 0 0 0 0 0 0 0 0 0 0 0 0 0 0 0 0.25 0"></feColorMatrix>
            <feBlend in2="BackgroundImageFix" result="effect1_dropShadow"></feBlend>
            <feBlend in="SourceGraphic" in2="effect1_dropShadow" result="shape"></feBlend>
        </filter>
    </defs>
</svg>